<?xml version="1.0" encoding="utf-8"?>
<!-- Generator: Adobe Illustrator 15.1.0, SVG Export Plug-In  -->
<!DOCTYPE svg PUBLIC "-//W3C//DTD SVG 1.1//EN" "http://www.w3.org/Graphics/SVG/1.1/DTD/svg11.dtd" [
	<!ENTITY ns_flows "http://ns.adobe.com/Flows/1.0/">
]>
<svg version="1.1"
	 xmlns="http://www.w3.org/2000/svg" xmlns:xlink="http://www.w3.org/1999/xlink" xmlns:a="http://ns.adobe.com/AdobeSVGViewerExtensions/3.0/"
	 x="0px" y="0px" width="1000px" height="1000px" viewBox="0 -128.671 1000 1000"
	 overflow="visible" enable-background="new 0 -128.671 1000 1000" xml:space="preserve">
<defs>
</defs>
<g>
	<defs>
		<rect id="SVGID_1_" y="0.03" width="1000" height="742.598"/>
	</defs>
	<clipPath id="SVGID_2_">
		<use xlink:href="#SVGID_1_"  overflow="visible"/>
	</clipPath>
	<path clip-path="url(#SVGID_2_)" fill-rule="evenodd" clip-rule="evenodd" fill="#0E2E4F" d="M546.249,307.716
		c-0.557-0.128-12.648-3.807-12.648-3.807S466.7,150.195,327.473,84.961c-0.516-0.24,31.213,61.281,29.633,138.464
		c-1.858,90.609-37.801,106.429-37.801,106.429l40.174,0.787c0,0-73.437,28.339-133.953,81.136
		c-0.402,0.347-47.285,0.789-47.285,0.789l17.392,29.104l-41.757,48.08L88.412,307.716c0,0-8.552,190.727-10.923,236.424
		c-0.028,0.536-35.688,25.148-44.915,113.399c-3.954,37.806,3.163,85.088,3.163,85.088s67.694-162.267,125.257-217.458l-7.12,28.461
		c0,0,54.854-47.286,143.301-47.286c1.669,0-67.699,95.361-77.187,140.133c-0.105,0.518,156.091-91.264,248.936-126.839
		c0.4-0.154,81.272,7.904,81.272,7.904s62.961,40.175,133.021,85.875l-18.035-62.157c0,0,10.407-0.597,126.041,19.62
		c1.788,0.311,43.34-35.431,43.34-35.431s93.783-7.113,165.428-55.981C1001.05,478.751,885.806,385.835,546.249,307.716
		 M760.271,546.458l13.538-16.882c0,0-25.9,14.74-58.218,10.227c-0.338-0.048,15.436-11.891,14.723-21.165
		c-0.027-0.331-31.84,11.409-60.122,5.94c-0.33-0.062,19.245-17.332,19.245-17.332s-24.239,9.513-41.588,5.944
		c-0.238-0.051,9.983-11.655,9.983-11.655l-23.051-8.553h86.993l-17.834,14.023c0,0,27.562,10.441,107.423,14.253
		C811.887,521.282,795.461,540.754,760.271,546.458z M872.617,468.921c-8.276,6.977-23.826,20.829-23.826,20.829l8.553-25.951
		c0,0-115.771-1.579-201.645-67.835c-0.533-0.408,46.495,51.238,46.495,51.238l-129.21-11.145l-7.117,48.158l-13.916-65.965
		c0,0-10.385,28.763-16.087,72.124c-1.654,12.583-7.718-46.883-7.718-87.423c0-1.328-16.701,42.161-23.154,85.52
		c0,0-10.008-47.541-8.683-84.755c0.039-0.937-21.063,63.691-21.063,81.283c0,0.667-8.235-73.671-8.235-73.671
		s-11.802,30.864-12.363,30.914c-72.861,6.295-129.809,23.14-240.982,54.618c-0.76,0.217-58.998,16.597-58.998,16.597
		s90.999-110.195,224.571-160.037c0,0,29.105-87.458-3.934-206.591c-0.176-0.644,72.204,45.512,126.032,191.716
		c0,0,225.199,17.931,389.428,129.453C891.322,468.369,876.75,466.161,872.617,468.921z"/>
</g>
<path fill-rule="evenodd" clip-rule="evenodd" fill="#0E2E4F" d="M977.348,113.379v18.515c-20.192-7.24-38.588-10.863-55.185-10.863
	c-12.224,0-22.043,2.411-29.466,7.239c-7.424,4.821-11.136,11.245-11.136,19.256c0,11.28,9.538,21.365,28.608,30.238
	c17.774,7.76,35.482,15.519,53.141,23.277c19.179,10.947,28.774,24.615,28.774,40.986c0,17.243-8.171,30.344-24.515,39.306
	c-14.383,7.934-33.331,11.894-56.861,11.894c-16.781,0-34.643-1.759-53.599-5.277v-18.296c20.172,7.77,39.633,11.656,58.383,11.656
	c31.186,0,46.783-11.222,46.783-33.667c0-12.262-9.269-22.878-27.822-31.863c-17.235-7.582-34.525-15.211-51.868-22.886
	c-18.548-10.343-27.815-23.358-27.815-39.042c0-14.226,6.599-25.261,19.8-33.107c12.871-7.756,30.599-11.637,53.19-11.637
	C943.579,109.109,960.113,110.534,977.348,113.379"/>
<path fill-rule="evenodd" clip-rule="evenodd" fill="#0E2E4F" d="M73.32,87.566l29.961-71.113c1.464-3.421,2.246-5.218,2.193-6.88
	c0-1.542-0.965-2.777-2.896-3.691c-1.46-0.711-4.208-1.481-8.255-2.312V1.389h24.909L156.6,87.566h-14.075l-12.158-28.553H93.894
	L82.442,87.566H73.32 M112.422,14.962l-16.55,39.057h32.87L112.422,14.962z"/>
<path fill-rule="evenodd" clip-rule="evenodd" fill="#0E2E4F" d="M238.661,87.566V14.828c0-3.796-0.873-6.401-2.613-7.824
	c-1.887-1.58-5.893-2.729-12.016-3.438V1.389h73.536v7.718l-37.976,0.008c-4.01,0-5.996,0.254-6.989,1.339
	c-0.893,0.922-1.343,3.19-1.343,6.825v55.24c0,3.788,0.824,6.06,2.479,6.812c0.943,0.42,3.275,0.54,8.608,0.54l35.471-0.009
	l0.061,7.704H238.661"/>
<path fill-rule="evenodd" clip-rule="evenodd" fill="#0E2E4F" d="M122.822,112.999v18.549
	c-20.234-7.259-38.662-10.882-55.289-10.882c-12.248,0-22.093,2.417-29.527,7.25c-7.44,4.833-11.159,11.265-11.159,19.29
	c0,11.312,9.558,21.411,28.666,30.305c17.804,7.771,35.552,15.546,53.242,23.32c19.221,10.968,28.831,24.662,28.831,41.071
	c0,17.272-8.183,30.396-24.559,39.38C98.617,289.229,79.628,293.2,56.057,293.2c-16.814,0-34.715-1.767-53.709-5.294v-18.33
	c20.215,7.789,39.717,11.682,58.5,11.682c31.25,0,46.875-11.248,46.875-33.738c0-12.281-9.291-22.925-27.873-31.923
	C62.578,208,45.253,200.351,27.876,192.67C9.292,182.306,0,169.263,0,153.545c0-14.253,6.616-25.307,19.843-33.165
	c12.899-7.777,30.663-11.664,53.29-11.664C88.99,108.717,105.55,110.146,122.822,112.999"/>
<rect x="250.041" y="40.559" fill="#0E2E4F" width="47.902" height="7.603"/>
<path fill-rule="evenodd" clip-rule="evenodd" fill="#0E2E4F" d="M169.528,87.566V14.828c0-3.796-0.871-6.401-2.612-7.824
	c-1.887-1.58-5.892-2.729-12.016-3.438V1.389h27.217l0.012,71.13c0,3.788,0.823,6.06,2.474,6.812
	c0.948,0.42,3.245,0.624,8.576,0.624l35.504-0.093l0.061,7.704H169.528"/>
<g>
	<defs>
		<rect id="SVGID_3_" y="0.03" width="1000" height="742.598"/>
	</defs>
	<clipPath id="SVGID_4_">
		<use xlink:href="#SVGID_3_"  overflow="visible"/>
	</clipPath>
	<path clip-path="url(#SVGID_4_)" fill-rule="evenodd" clip-rule="evenodd" fill="#0E2E4F" d="M61.299,2.062v8.946
		c-8.732-3.497-16.683-5.248-23.863-5.248c-5.286,0-9.534,1.167-12.742,3.5c-3.212,2.332-4.818,5.432-4.818,9.306
		c0,5.453,4.125,10.327,12.372,14.617c7.685,3.751,15.342,7.502,22.979,11.252c8.299,5.289,12.446,11.894,12.446,19.811
		c0,8.332-3.533,14.666-10.601,18.997c-6.222,3.832-14.419,5.753-24.593,5.753c-7.256,0-14.981-0.854-23.18-2.554v-8.845
		c8.73,3.755,17.142,5.633,25.253,5.633c13.483,0,20.229-5.427,20.229-16.275c0-5.921-4.014-11.058-12.032-15.396
		c-7.452-3.665-14.927-7.356-22.429-11.062c-8.022-5-12.031-11.289-12.031-18.874c0-6.873,2.856-12.21,8.565-15.997
		C22.418,1.875,30.089,0,39.855,0C46.696,0,53.846,0.684,61.299,2.062"/>
</g>
<path fill="#0E2E4F" d="M287.653,293.97v-86.611h-82.616l0.023,86.611h-32.817V139.051c0-8.433-1.935-14.225-5.807-17.376
	c-4.188-3.519-13.086-6.064-26.697-7.64v-4.84h65.273l0.022,80.922h82.619v-51.066c0-8.433-1.94-14.225-5.81-17.376
	c-4.187-3.519-13.088-6.064-26.698-7.64v-4.84h65.276l0.043,184.775H287.653"/>
<path fill="#0E2E4F" d="M484.593,109.195l88.132-0.221c22.07,0,38.521,2.516,49.349,8.447c13.792,7.555,20.694,20.5,20.694,38.838
	c0,25.713-18.062,40.726-54.183,45.042l63.282,92.976h-30.646l-62.516-91.358H543.48l0.023,91.05h-32.815V139.051
	c0-8.433-1.937-14.225-5.81-17.376c-4.185-3.519-13.083-6.064-26.694-7.64v-4.84H484.593 M543.477,192.153h7.938
	c17.593,0,30.479-1.616,38.655-4.854c14.63-5.671,21.94-16.917,21.94-33.738c0-22.85-15.594-34.275-46.786-34.275
	c-9.72,0-15.704,0.764-17.953,2.294c-1.905,1.375-3.171,4.219-3.812,8.524L543.477,192.153z"/>
<path fill="#0E2E4F" d="M721.604,194.355l77.478-84.869h20.843l-69.07,78.955l85.676,104.383l-40.198-0.105l-73.939-91.972
	l-0.788-1.68l0.028,94.902H688.81V139.051c0-8.433-1.935-14.225-5.804-17.376c-4.188-3.519-13.087-6.064-26.697-7.64v-4.84h65.275
	L721.604,194.355"/>
</svg>
