<?xml version="1.0" encoding="UTF-8" standalone="no"?>
<svg
   xmlns:dc="http://purl.org/dc/elements/1.1/"
   xmlns:cc="http://creativecommons.org/ns#"
   xmlns:rdf="http://www.w3.org/1999/02/22-rdf-syntax-ns#"
   xmlns:svg="http://www.w3.org/2000/svg"
   xmlns="http://www.w3.org/2000/svg"
   xmlns:sodipodi="http://sodipodi.sourceforge.net/DTD/sodipodi-0.dtd"
   xmlns:inkscape="http://www.inkscape.org/namespaces/inkscape"
   inkscape:version="1.0 (4035a4fb49, 2020-05-01)"
   height="881.05762"
   width="1059.1693"
   sodipodi:docname="Logo Saracens 2021.svg"
   version="1.1"
   viewBox="0 0 1059.1693 881.05762"
   data-name="Layer 1"
   id="Layer_1">
  <metadata
     id="metadata115">
    <rdf:RDF>
      <cc:Work
         rdf:about="">
        <dc:format>image/svg+xml</dc:format>
        <dc:type
           rdf:resource="http://purl.org/dc/dcmitype/StillImage" />
        <dc:title></dc:title>
      </cc:Work>
    </rdf:RDF>
  </metadata>
  <sodipodi:namedview
     inkscape:current-layer="Layer_1"
     inkscape:window-maximized="1"
     inkscape:window-y="-9"
     inkscape:window-x="-9"
     inkscape:cy="455.17721"
     inkscape:cx="529.39"
     inkscape:zoom="0.71544715"
     fit-margin-bottom="0"
     fit-margin-right="0"
     fit-margin-left="0"
     fit-margin-top="0"
     showgrid="false"
     id="namedview113"
     inkscape:window-height="1051"
     inkscape:window-width="1920"
     inkscape:pageshadow="2"
     inkscape:pageopacity="0"
     guidetolerance="10"
     gridtolerance="10"
     objecttolerance="10"
     borderopacity="1"
     bordercolor="#666666"
     pagecolor="#ffffff" />
  <defs
     id="defs88">
    <style
       id="style86">.cls-1{fill:#1b1c1c;}.cls-2{fill:#bd1824;}</style>
  </defs>
  <path
     id="path90"
     d="m 101.39,827.79721 q 0.32,21.28 -11,36.37 -7.49,10.24 -21.11,14.45 a 57.69,57.69 0 0 1 -17,2.27 q -18,0 -29.88,-8.93 a 49.89,49.89 0 0 1 -15.66,-19.88 79.88,79.88 0 0 1 -6.74,-28.82 l 29.22,-2.1 q 1.95,17.78 9.42,25.78 5.51,6 12.66,5.71 10.06,-0.33 16.07,-9.91 3.09,-4.72 3.09,-13.49 0,-12.66 -11.52,-25.19 l -27.4,-25.88 q -15.25,-14.79 -21.58,-26.49 a 61.18,61.18 0 0 1 -6.82,-28.51 q 0,-27.8 18.67,-42.1 11.52,-8.6 28.57,-8.61 16.39,0 28.09,7.31 a 42.4,42.4 0 0 1 14.69,15.91 58.85,58.85 0 0 1 6.74,23.49 l -29.39,5.36 q -1.31,-12.51 -7.15,-19.48 c -2.8,-3.37 -6.87,-5 -12.17,-5 a 14,14 0 0 0 -12.8,7.44 q -3.57,6 -3.57,14.93 0,14 12,28.43 a 102.79,102.79 0 0 0 13.63,13 q 10.72,8.94 14.13,12.51 a 104.93,104.93 0 0 1 17.54,22.39 87,87 0 0 1 4.7,9.58 q 4.37,10.84 4.57,19.46 z"
     class="cls-1" />
  <path
     id="path92"
     d="m 169.89,831.70721 -7.45,46.74 h -32 l 34.58,-203.41 h 42.21 l 34.16,203.41 h -32.28 l -7.18,-46.74 z m 16.12,-110.08 -11.37,80.2 h 22.75 z"
     class="cls-1" />
  <path
     id="path94"
     d="m 326.99,675.03721 q 25.65,0 37.66,14.11 10.56,12.35 10.56,34.42 v 29.61 q 0,21.6 -16.4,36.52 l 22.72,88.8 h -33.14 l -18.61,-76.62 h -20.49 v 76.62 h -30.67 v -203.46 z m 18.34,49 q 0,-17.68 -17.53,-17.71 h -18.51 v 65.11 h 18.51 a 16.82,16.82 0 0 0 12.43,-5.19 17.2,17.2 0 0 0 5.1,-12.5 z"
     class="cls-1" />
  <path
     id="path96"
     d="m 457.03,831.70721 -7.45,46.74 h -32 l 34.58,-203.41 h 42.23 l 34.09,203.41 h -32.23 l -7.18,-46.74 z m 16.12,-110.08 -11.36,80.2 h 22.73 z"
     class="cls-1" />
  <path
     id="path98"
     d="m 609.75,881.05721 a 48.5,48.5 0 0 1 -48.7,-48.55 v -111 a 48.62,48.62 0 1 1 97.24,0 v 23.17 h -31.81 v -23.86 a 17.74,17.74 0 0 0 -17.71,-17.64 16.76,16.76 0 0 0 -12.38,5.14 17.12,17.12 0 0 0 -5.12,12.5 v 111.36 a 17.46,17.46 0 0 0 17.53,17.54 17.21,17.21 0 0 0 12.51,-5.11 16.85,16.85 0 0 0 5.2,-12.43 v -28.08 h 31.78 v 28.41 a 48.48,48.48 0 0 1 -48.54,48.55 z"
     class="cls-1" />
  <path
     id="path100"
     d="m 694.9,878.44721 v -203.58 h 87.33 v 30.84 h -56.66 v 55.53 h 41.4 v 30.84 h -41.4 v 55.53 h 56.66 v 30.84 z"
     class="cls-1" />
  <path
     id="path102"
     d="m 849.21,674.86721 40.72,136.82 v -136.82 h 30.69 v 203.58 h -33 l -42.17,-130.36 v 130.36 h -30.68 v -203.58 z"
     class="cls-1" />
  <path
     id="path104"
     d="m 1059.16,827.79721 q 0.33,21.28 -11,36.37 -7.47,10.24 -21.1,14.45 a 57.81,57.81 0 0 1 -17.05,2.27 q -18,0 -29.88,-8.93 a 49.89,49.89 0 0 1 -15.74,-19.88 80.29,80.29 0 0 1 -6.74,-28.82 l 29.22,-2.1 q 1.95,17.78 9.42,25.78 5.52,6 12.66,5.71 10.08,-0.33 16.07,-9.91 3.09,-4.72 3.09,-13.49 0,-12.66 -11.52,-25.19 l -27.2,-25.88 q -15.27,-14.79 -21.59,-26.49 a 61.18,61.18 0 0 1 -6.82,-28.59 q 0,-27.8 18.67,-42.1 11.52,-8.6 28.57,-8.61 16.39,0 28.09,7.31 a 42.32,42.32 0 0 1 14.69,15.91 58.85,58.85 0 0 1 6.74,23.55 l -29.39,5.36 q -1.29,-12.51 -7.14,-19.48 c -2.81,-3.37 -6.88,-5 -12.18,-5 a 14,14 0 0 0 -12.82,7.46 q -3.58,6 -3.58,14.93 0,14 12,28.43 a 102.34,102.34 0 0 0 13.64,13 q 10.71,8.94 14.13,12.51 a 104.54,104.54 0 0 1 17.53,22.39 87,87 0 0 1 4.7,9.58 q 4.38,10.84 4.53,19.46 z"
     class="cls-1" />
  <path
     id="path106"
     d="M 1000.15,160.62721 C 968.59,42.867212 717.78,-45.152788 456.26,24.927212 194.74,95.007212 21.55,296.62721 53.11,414.39721 c 31.56,117.77 282.36,205.78 543.87,135.71 261.51,-70.07 434.74,-271.64 403.17,-389.48 z"
     class="cls-1" />
  <path
     id="path108"
     d="m 146.87,430.77721 c -26.61,-50.7 -8.88,-125.61 57.61,-195 74,-81.87 210.14,-150.339998 325.19,-168.999998 22.56,-3.44 44.88,-6.27 64.26,-5.85 -53,18.23 -98.33,36.61 -152,70.459998 -111.48,65.93 -192.34,154.15 -195.83,232.79 -11.47,76.23 68.74,144.24 170.75,145.68 -128.69,30.13 -229.17,-15.27 -270,-79.12 z"
     class="cls-2" />
  <polygon
     transform="translate(-85.61,-159.82279)"
     id="polygon110"
     points="735.66,256.34 748.02,360.55 906.99,344.65 751.56,429.43 763.92,538.94 645.58,485.95 470.72,570.73 569.63,450.63 470.72,399.4 631.45,379.98 "
     class="cls-2" />
</svg>
