<?xml version="1.0" encoding="UTF-8"?>
<svg xmlns="http://www.w3.org/2000/svg" viewBox="62.5 115 375 375" width="300" height="300">
<g fill="#021FA1">
    <path d="M102.09,411.52c0-3.09-2.96-4.6-9.98-4.6s-9.92,1.27-9.92,4.3v1.03c0,2.18,2.18,2.72,4.9,3.27l14.16,2.84c6.47,1.27,10.71,3.99,10.71,9.02v4.18c0,5.93-4.9,10.83-19.97,10.83s-19.91-4.9-19.91-10.83v-3.21c0-1.03.42-1.51,1.51-1.51h6.41c1.03,0,1.39.48,1.39,1.51v2.12c0,3.15,3.33,4.66,10.59,4.66s10.59-1.21,10.59-4.3v-1.63c0-2.24-2.24-3.03-5.75-3.75l-14.1-2.84c-5.45-1.09-9.8-4.05-9.8-9.14v-2.78c0-5.99,4.48-11.01,19.18-11.01s19.24,5.14,19.24,11.07v1.88c0,1.09-.42,1.57-1.45,1.57h-6.41c-1.03,0-1.39-.48-1.39-1.57v-1.09Z"/>
    <path d="M152.91,400.44c1.03,0,1.51.36,1.51,1.45v4.66c0,1.09-.48,1.51-1.51,1.51h-13.31v31.95c0,1.09-.36,1.57-1.45,1.57h-6.72c-1.09,0-1.51-.48-1.51-1.57v-31.95h-13.25c-1.09,0-1.51-.42-1.51-1.51v-4.66c0-1.09.42-1.45,1.51-1.45h36.24Z"/>
    <path d="M158.16,411.21c0-5.81,5.02-11.56,20.21-11.56s20.33,5.75,20.33,11.56v19.6c0,5.81-5.08,11.56-20.33,11.56s-20.21-5.75-20.21-11.56v-19.6ZM189.02,412.85c0-3.93-3.51-5.51-10.65-5.51s-10.59,1.57-10.59,5.51v16.34c0,3.93,3.57,5.51,10.59,5.51s10.65-1.57,10.65-5.51v-16.34Z"/>
    <path d="M212.75,441.59h-6.72c-1.09,0-1.45-.48-1.45-1.57v-38c0-1.09.36-1.57,1.45-1.57h21.84c12.34,0,16.4,5.26,16.4,11.01v4.18c0,4.36-2.3,8.41-8.65,10.1l8.53,14.1c.54.91-.06,1.75-1.21,1.75h-7.26c-1.27,0-1.57-.48-2.24-1.57l-8.05-13.37h-11.19v13.37c0,1.09-.36,1.57-1.45,1.57ZM214.2,408.07v10.95h12.95c5.08,0,7.56-1.39,7.56-4.3v-2.42c0-2.84-2.48-4.24-7.56-4.24h-12.95Z"/>
    <path d="M299.04,440.07c0,1.03-.36,1.51-1.45,1.51h-6.47c-1.03,0-1.45-.48-1.45-1.51v-23.9c-1.03,2.36-1.75,3.99-2.24,4.72l-8.29,12.95c-.61.97-1.09,1.51-2.18,1.51h-5.08c-1.15,0-1.63-.67-2.18-1.51l-8.89-13.55c-.48-.79-1.09-1.94-2-4.11v23.9c0,1.03-.42,1.51-1.45,1.51h-6.23c-1.09,0-1.45-.48-1.45-1.51v-38.12c0-1.03.36-1.51,1.45-1.51h6.66c1.03,0,1.33.42,1.75,1.09l13.25,21.06c.48.79,1.03,1.75,1.82,3.09.67-1.15,1.33-2.3,1.75-3.02l12.71-21.18c.42-.73.79-1.03,1.81-1.03h6.78c1.03,0,1.39.48,1.39,1.51v38.12Z"/>
    <path d="M307,441.59c-1.09,0-1.45-.48-1.45-1.57v-38c0-1.09.36-1.57,1.45-1.57h29.71c1.03,0,1.51.36,1.51,1.45v4.66c0,1.09-.48,1.51-1.51,1.51h-21.54v8.71h20.09c1.09,0,1.57.3,1.57,1.39v4.42c0,1.09-.48,1.51-1.57,1.51h-20.09v9.86h22.39c1.09,0,1.51.36,1.51,1.45v4.66c0,1.09-.42,1.51-1.51,1.51h-30.56Z"/>
    <path d="M352.39,441.59h-6.72c-1.09,0-1.45-.48-1.45-1.57v-38c0-1.09.36-1.57,1.45-1.57h21.84c12.34,0,16.4,5.26,16.4,11.01v4.18c0,4.36-2.3,8.41-8.65,10.1l8.53,14.1c.54.91-.06,1.75-1.21,1.75h-7.26c-1.27,0-1.57-.48-2.24-1.57l-8.05-13.37h-11.19v13.37c0,1.09-.36,1.57-1.45,1.57ZM353.84,408.07v10.95h12.95c5.08,0,7.56-1.39,7.56-4.3v-2.42c0-2.84-2.48-4.24-7.56-4.24h-12.95Z"/>
    <path d="M418.06,411.52c0-3.09-2.96-4.6-9.98-4.6s-9.92,1.27-9.92,4.3v1.03c0,2.18,2.18,2.72,4.9,3.27l14.16,2.84c6.47,1.27,10.71,3.99,10.71,9.02v4.18c0,5.93-4.9,10.83-19.97,10.83s-19.91-4.9-19.91-10.83v-3.21c0-1.03.42-1.51,1.51-1.51h6.41c1.03,0,1.39.48,1.39,1.51v2.12c0,3.15,3.33,4.66,10.59,4.66s10.59-1.21,10.59-4.3v-1.63c0-2.24-2.24-3.03-5.75-3.75l-14.1-2.84c-5.45-1.09-9.8-4.05-9.8-9.14v-2.78c0-5.99,4.48-11.01,19.18-11.01s19.24,5.14,19.24,11.07v1.88c0,1.09-.42,1.57-1.45,1.57h-6.41c-1.03,0-1.39-.48-1.39-1.57v-1.09Z"/>

    <path d="M348.34,322.7c0-8.16-3.79-15.79-10.32-22.21-2.78,2.85-7.96,6.78-17.13,10.78-18.31,8-44.15,12.59-70.89,12.59s-52.58-4.59-70.89-12.59c-16.32-7.13-20.01-14.02-20.01-14.99v-5.3c-.07-.03-.14-.06-.2-.09-23.36-10.21-36.11-22.8-42.92-34.55v39.93c0,12.25,5.15,24.05,14.91,34.12,7.63,7.88,18.04,14.74,30.96,20.38,23.9,10.44,55.21,16.2,88.15,16.2,19.84,0,39.08-2.09,56.47-6.03,6.18-1.4,12.21-3.41,17.83-6.33,14.9-7.76,24.04-19.41,24.04-31.92Z"/>
    <path d="M369.11,191.45c-7.63-7.88-18.04-14.74-30.96-20.38-23.9-10.44-55.21-16.2-88.15-16.2-19.84,0-39.08,2.09-56.47,6.03-6.18,1.4-12.21,3.41-17.83,6.33-14.9,7.76-24.04,19.41-24.04,31.92,0,8.16,3.79,15.79,10.32,22.21,2.78-2.85,7.96-6.78,17.13-10.78,18.31-8,44.15-12.59,70.89-12.59s52.58,4.59,70.89,12.59c16.32,7.13,20.01,14.02,20.01,14.99v5.3c.07.03.14.06.2.09,23.36,10.21,36.11,22.8,42.92,34.55v-39.93c0-12.25-5.15-24.05-14.91-34.12Z"/>
    <path d="M338.15,241.77c-23.9-10.45-55.21-16.2-88.15-16.2h0c-8.06,0-16.02.35-23.79,1.02l18.37,26.5c-24.78-.57-48.4-5.06-65.46-12.52-4.48-1.96-8-3.9-10.77-5.7-.54-.33-1.08-.66-1.61-1-14.2-9.15-22.03-21.48-22.03-34.71,0-8.92,3.56-17.43,10.23-24.83-9.77,4.96-17.84,10.71-24.06,17.13-9.75,10.08-14.91,21.87-14.91,34.12s5.15,24.05,14.91,34.12c7.63,7.88,18.04,14.74,30.96,20.38,23.77,10.39,54.87,16.13,87.62,16.19h0s.53,0,.53,0c0,0,0,0,0,0h0s4.28,0,4.28,0h0s0,0,0,0h.01c8.05,0,16-.35,23.78-1.02l-18.27-26.36c23.17.97,45.02,5.36,61.08,12.38,4.48,1.96,8.01,3.9,10.77,5.7.54.33,1.08.66,1.6,1,14.2,9.15,22.03,21.48,22.03,34.71,0,8.92-3.56,17.43-10.23,24.83,9.77-4.96,17.84-10.71,24.06-17.13,9.75-10.08,14.91-21.87,14.91-34.12s-5.15-24.05-14.91-34.12c-7.63-7.88-18.04-14.74-30.96-20.38Z"/>
  </g>
</svg>