<?xml version="1.0" encoding="UTF-8" standalone="no"?>
<!-- Created with Inkscape (http://www.inkscape.org/) -->
<svg xmlns:inkscape="http://www.inkscape.org/namespaces/inkscape" xmlns:sodipodi="http://sodipodi.sourceforge.net/DTD/sodipodi-0.dtd" xmlns="http://www.w3.org/2000/svg" xmlns:svg="http://www.w3.org/2000/svg" version="1.1" id="svg2" xml:space="preserve" width="447.72" height="1027.2306" viewBox="0 0 447.72 1027.2306" sodipodi:docname="3f0c6615f905a998204364a6bd697e41.eps">
  <defs id="defs6"></defs>
  <g id="g8" inkscape:groupmode="layer" inkscape:label="ink_ext_XXXXXX" transform="matrix(1.3333333,0,0,-1.3333333,-172.99066,1075.2306)">
    <g id="g10" transform="scale(0.1)">
      <path d="M 1827.63,2411.68 1474.12,1528.1 h 176.83 v 176.68 h 176.68 v -353.51 h -530.19 v 176.83 l 353.51,883.58 h -176.83 v -176.7 h -176.68 v 353.5 h 530.19 v -176.8" style="fill:#253267;fill-opacity:1;fill-rule:nonzero;stroke:none" id="path12"></path>
      <path d="m 2357.86,2235.04 v 176.69 h -176.8 v -353.5 h 353.5 v -176.7 h -353.5 v -353.5 h 176.8 v 176.82 h 176.7 v -353.5 h -530.2 v 1237.08 h 530.2 v -353.39 h -176.7" style="fill:#253267;fill-opacity:1;fill-rule:nonzero;stroke:none" id="path14"></path>
      <path d="M 3241.48,2588.36 H 2711.3 V 1351.27 h 530.18 v 530.21 l -88.41,88.28 88.41,88.41 z M 3064.8,1527.97 h -176.83 v 353.51 h 176.83 z m 0,530.2 h -176.83 v 353.51 h 176.83 v -353.51" style="fill:#253267;fill-opacity:1;fill-rule:nonzero;stroke:none" id="path16"></path>
      <path d="m 3948.41,2588.36 h -530.2 V 1351.14 h 176.81 v 530.21 h 176.7 v -530.21 h 176.69 v 530.21 l -88.28,88.41 88.28,88.41 z m -176.69,-530.19 h -176.7 v 353.38 h 176.7 v -353.38" style="fill:#253267;fill-opacity:1;fill-rule:nonzero;stroke:none" id="path18"></path>
      <path d="m 4478.65,2235.04 v 176.69 h -176.83 v -353.5 h 353.51 v -176.7 h -353.51 v -353.5 h 176.83 v 176.82 h 176.68 v -353.5 h -530.2 v 1237.08 h 530.2 v -353.39 h -176.68" style="fill:#253267;fill-opacity:1;fill-rule:nonzero;stroke:none" id="path20"></path>
      <path d="M 1297.43,1243.58 V 360 h 176.69 v 353.375 h 353.51 v 530.205 z m 353.39,-353.377 h -176.7 v 176.677 h 176.7 V 890.203" style="fill:#fdd804;fill-opacity:1;fill-rule:nonzero;stroke:none" id="path22"></path>
      <path d="M 1915.98,1243.58 V 360 h 176.7 v 353.375 h 176.68 V 360 h 176.81 v 883.58 z m 353.38,-353.377 h -176.68 v 176.677 h 176.68 V 890.203" style="fill:#fdd804;fill-opacity:1;fill-rule:nonzero;stroke:none" id="path24"></path>
      <path d="M 3064.73,1243.58 H 2534.54 V 360 h 176.81 v 353.375 h 176.7 V 360 h 176.68 v 353.375 l -88.29,88.414 88.29,88.414 z M 2888.05,890.203 h -176.7 v 176.677 h 176.7 V 890.203" style="fill:#fdd804;fill-opacity:1;fill-rule:nonzero;stroke:none" id="path26"></path>
      <path d="M 4036.79,1066.88 V 360 h -176.83 v 706.88 H 3683.29 V 360 h -176.7 v 706.88 H 3329.78 V 360 h -176.7 v 883.58 h 706.88 l 176.83,-176.7" style="fill:#fdd804;fill-opacity:1;fill-rule:nonzero;stroke:none" id="path28"></path>
      <path d="M 4125.15,1243.58 V 360 h 176.67 v 353.375 h 176.7 V 360 h 176.81 v 883.58 z m 353.37,-353.377 h -176.7 v 176.677 h 176.7 V 890.203" style="fill:#fdd804;fill-opacity:1;fill-rule:nonzero;stroke:none" id="path30"></path>
      <path d="m 2073.64,6108.47 c 0,0 -21.18,-124.59 50.59,-193.17 71.76,-68.56 209.63,-41.07 209.63,-41.07 l -115.85,143.99 -80.64,59.58 -63.73,30.67 v 0" style="fill:#fdd804;fill-opacity:1;fill-rule:nonzero;stroke:none" id="path32"></path>
      <path d="m 2181.2,5820.73 c 0,0 224.8,-288.56 265.08,-532.39 40.26,-243.8 40.26,-402.63 40.26,-402.63 l -89.48,-109.6 c 0,0 45.1,129.73 31.31,223.69 -13.79,93.94 -225.2,282.04 -232.64,464.23 -7.42,182.19 -14.53,356.7 -14.53,356.7 v 0" style="fill:#253267;fill-opacity:1;fill-rule:nonzero;stroke:none" id="path34"></path>
      <path d="m 2114.79,5820.73 c 0,0 -25.56,-294.62 0,-568.16 25.59,-273.56 220.59,-502.19 220.59,-502.19 0,0 0,-78.48 0,-142.6 0,-64.13 58.21,-132.76 58.21,-132.76 0,0 -309.76,181.07 -368.77,561.51 -59.01,380.45 89.97,784.2 89.97,784.2 v 0" style="fill:#253267;fill-opacity:1;fill-rule:nonzero;stroke:none" id="path36"></path>
      <path d="m 3364.48,5855.42 c 0,468.57 -173.76,848.41 -388.09,848.41 165.18,0 299.11,-379.84 299.11,-848.41 0,-468.56 -133.93,-848.4 -299.11,-848.4 214.33,0 388.09,379.84 388.09,848.4 z m -388.09,848.41 c -214.35,0 -388.1,-379.84 -388.1,-848.41 0,-468.56 173.75,-848.4 388.1,-848.4 -165.2,0 -299.12,379.84 -299.12,848.4 0,468.57 133.92,848.41 299.12,848.41" style="fill:#6475b1;fill-opacity:1;fill-rule:nonzero;stroke:none" id="path38"></path>
      <path d="m 3036.02,5855.43 c 0,-309.27 -26.7,-559.96 -59.63,-559.96 -32.95,0 -59.66,250.69 -59.66,559.96 0,309.24 26.71,559.95 59.66,559.95 32.93,0 59.63,-250.71 59.63,-559.95 v 0" style="fill:#fdd804;fill-opacity:1;fill-rule:nonzero;stroke:none" id="path40"></path>
      <path d="m 2314.96,6156.25 c 0,0 69.83,165.43 171.58,333.79 101.74,168.37 289.22,254.03 289.22,254.03 0,0 -104.71,-150.65 -196.97,-307.2 -92.25,-156.55 -157.49,-407.63 -157.49,-407.63 l -106.34,127.01 v 0" style="fill:#253267;fill-opacity:1;fill-rule:nonzero;stroke:none" id="path42"></path>
      <path d="m 3879.12,6108.65 c 0,0 21.18,-124.59 -50.6,-193.17 -71.75,-68.58 -209.62,-41.07 -209.62,-41.07 l 115.85,143.99 80.64,59.58 63.73,30.67 v 0" style="fill:#fdd804;fill-opacity:1;fill-rule:nonzero;stroke:none" id="path44"></path>
      <path d="m 3771.55,5820.91 c 0,0 -224.8,-288.56 -265.05,-532.38 -40.28,-243.83 -40.28,-402.64 -40.28,-402.64 l 89.48,-109.6 c 0,0 -45.09,129.73 -31.31,223.67 13.79,93.97 225.22,282.05 232.63,464.25 7.42,182.19 14.53,356.7 14.53,356.7 v 0" style="fill:#253267;fill-opacity:1;fill-rule:nonzero;stroke:none" id="path46"></path>
      <path d="m 3837.96,5820.91 c 0,0 25.57,-294.62 0,-568.18 -25.56,-273.54 -220.59,-502.19 -220.59,-502.19 0,0 0,-78.46 0,-142.59 0,-64.12 -58.2,-132.75 -58.2,-132.75 0,0 309.78,181.07 368.77,561.51 59.01,380.43 -89.98,784.2 -89.98,784.2 v 0" style="fill:#253267;fill-opacity:1;fill-rule:nonzero;stroke:none" id="path48"></path>
      <path d="m 3951.39,4938.2 c 0,0 0.66,-361.7 -416.11,-875.16 -267.78,-322.47 -558.89,-481.33 -558.89,-481.33 v -0.19 c 0,0 -291.14,158.89 -558.91,481.35 -416.76,513.45 -416.11,875.15 -416.11,875.15 0,0 -67.09,-396.87 134.21,-909.77 201.33,-512.88 840.81,-909.77 840.81,-909.77 v 0.19 c 0,0 639.46,396.87 840.78,909.76 201.33,512.89 134.22,909.77 134.22,909.77" style="fill:#253267;fill-opacity:1;fill-rule:nonzero;stroke:none" id="path50"></path>
      <path d="m 3637.79,6156.42 c 0,0 -69.81,165.42 -171.57,333.8 -101.74,168.36 -289.22,254.03 -289.22,254.03 0,0 104.72,-150.65 196.97,-307.2 92.25,-156.57 157.49,-407.63 157.49,-407.63 l 106.33,127 v 0" style="fill:#253267;fill-opacity:1;fill-rule:nonzero;stroke:none" id="path52"></path>
      <path d="m 4129.94,7367.84 c 0,345.52 -229.99,696.39 -229.99,696.39 0,0 -274.72,-140.55 -376.94,-530.28 -51.05,-194.63 9.45,-462.5 82.81,-681.92 l -241.34,224.22 401.31,-615.38 v 242.54 c 0,0 -95.84,377.62 -95.84,629.63 0,252.03 191.67,411.75 191.67,411.75 0,0 121.38,-178.21 114.99,-411.75 -6.38,-233.54 -134.17,-450.75 -134.17,-450.75 0,0 287.5,140.04 287.5,485.55" style="fill:#253267;fill-opacity:1;fill-rule:nonzero;stroke:none" id="path54"></path>
      <path d="m 2346.94,6852.03 c 73.36,219.42 133.86,487.29 82.81,681.92 -102.21,389.73 -376.94,530.28 -376.94,530.28 0,0 -230,-350.87 -230,-696.39 0,-345.51 287.5,-485.55 287.5,-485.55 0,0 -127.77,217.21 -134.16,450.75 -6.39,233.54 114.99,411.75 114.99,411.75 0,0 191.66,-159.72 191.66,-411.75 0,-252.01 -95.83,-629.63 -95.83,-629.63 v -242.54 l 401.32,615.38 -241.35,-224.22" style="fill:#253267;fill-opacity:1;fill-rule:nonzero;stroke:none" id="path56"></path>
      <path d="m 3216.09,7039.03 191.31,663.36 h -862.04 l 191.35,-663.51 c -69.64,-50 -144.85,-111.34 -211.9,-182.56 -191.89,-203.82 -343.6,-630.81 -343.6,-630.81 0,0 248.94,382.69 407.08,530.15 158.1,147.46 388.1,147.62 388.1,147.62 v 0.18 c 0,0 229.97,-0.16 388.09,-147.62 158.12,-147.48 407.07,-530.14 407.07,-530.14 0,0 -151.72,426.98 -343.6,630.78 -67.04,71.22 -142.23,132.55 -211.86,182.55" style="fill:#253267;fill-opacity:1;fill-rule:nonzero;stroke:none" id="path58"></path>
      <path d="m 3962.11,6112.6 c -272.05,43.51 -585.95,-489.34 -726.57,-1212.47 -77.51,24.08 -165.56,37.89 -259.15,37.89 -93.62,0 -181.69,-13.81 -259.2,-37.91 -140.65,723.05 -454.51,1255.81 -726.55,1212.3 272.63,25.6 549.61,-519.52 644.65,-1243.6 -132.27,-60.52 -217.81,-155.09 -217.81,-261.6 0,-67.22 33.85,-129.66 91.75,-181.62 v -179.23 c 0,-162.31 131.82,-294.11 294.11,-294.11 h 346.07 c 162.32,0 294.11,131.8 294.11,294.11 v 179.23 c 57.93,51.96 91.76,114.4 91.76,181.62 0,106.51 -85.55,201.08 -217.82,261.61 95.02,724.16 372,1269.37 644.65,1243.78" style="fill:#253267;fill-opacity:1;fill-rule:nonzero;stroke:none" id="path60"></path>
    </g>
  </g>
</svg>
